<?xml version="1.0" encoding="iso-8859-1"?>
<!-- Generator: Adobe Illustrator 18.0.0, SVG Export Plug-In . SVG Version: 6.00 Build 0)  -->
<!DOCTYPE svg PUBLIC "-//W3C//DTD SVG 1.1//EN" "http://www.w3.org/Graphics/SVG/1.1/DTD/svg11.dtd">
<svg version="1.1" id="Capa_1" xmlns="http://www.w3.org/2000/svg" xmlns:xlink="http://www.w3.org/1999/xlink" x="0px" y="0px"
	 viewBox="0 0 457.525 457.525" style="enable-background:new 0 0 457.525 457.525;" xml:space="preserve">
<g>
	<path d="M27.966,322.53c-5.857-5.858-15.355-5.858-21.213,0c-5.858,5.858-5.858,15.355,0,21.213
		c22.514,22.515,59.147,22.515,81.661,0c5.24-5.24,12.207-8.125,19.618-8.125s14.377,2.886,19.617,8.125
		c10.906,10.906,25.407,16.913,40.831,16.913c6.07,0,11.992-0.944,17.613-2.737l-30.354-30.354
		c-2.504-1.298-4.824-2.983-6.876-5.035c-22.514-22.515-59.148-22.515-81.661,0c-5.24,5.24-12.207,8.125-19.618,8.125
		C40.173,330.656,33.206,327.77,27.966,322.53z"/>
	<path d="M188.097,386.93c-5.24,5.24-12.207,8.125-19.617,8.125c-7.41,0-14.377-2.885-19.617-8.125
		c-22.514-22.515-59.148-22.515-81.661,0c-5.24,5.24-12.207,8.125-19.618,8.125c-7.411,0-14.377-2.886-19.618-8.125
		c-5.857-5.858-15.355-5.858-21.213,0c-5.858,5.858-5.858,15.355,0,21.213c22.514,22.515,59.147,22.515,81.661,0
		c5.24-5.24,12.207-8.125,19.618-8.125s14.377,2.886,19.617,8.125c10.906,10.906,25.407,16.913,40.831,16.913
		c15.424,0,29.925-6.006,40.831-16.913c5.229-5.229,12.043-7.922,18.91-8.096l-24.338-24.338
		C198.102,378.495,192.768,382.259,188.097,386.93z"/>
	<path d="M272.334,100.508c5.45,1.675,11.178,2.548,17.042,2.548c15.424,0,29.925-6.006,40.83-16.913
		c5.24-5.24,12.207-8.126,19.618-8.126c7.41,0,14.377,2.886,19.617,8.126c22.514,22.514,59.147,22.515,81.661,0
		c5.858-5.858,5.858-15.355,0-21.213c-5.857-5.858-15.355-5.858-21.213,0c-5.24,5.24-12.207,8.125-19.617,8.125
		c-7.411,0-14.378-2.886-19.618-8.125c-22.514-22.515-59.147-22.513-81.661,0c-5.24,5.24-12.207,8.125-19.617,8.125
		c-7.41,0-14.377-2.885-19.617-8.125c-9.256-9.256-21.106-14.966-33.907-16.487c0.418,4.681-0.141,9.419-1.684,13.899
		L272.334,100.508z"/>
	<path d="M429.89,129.33c-10.816,10.817-28.419,10.817-39.235-0.001c-22.514-22.514-59.147-22.512-81.661,0.001
		c-1.331,1.331-2.775,2.509-4.309,3.528l21.416,21.416c1.417-1.172,2.789-2.414,4.105-3.73
		c10.816-10.817,28.417-10.817,39.235-0.001c11.258,11.258,26.042,16.887,40.831,16.886c14.785-0.001,29.574-5.629,40.83-16.885
		c5.858-5.858,5.858-15.355,0-21.213C445.246,123.472,435.747,123.474,429.89,129.33z"/>
	<path d="M450.534,306.992L223.368,79.825l-23.046,32.163c89.844,89.844,204.871,204.331,204.871,204.331
		c14.446,14.447,14.446,37.953,0,52.399c-6.799,6.799-15.775,10.63-25.355,10.843c-0.213,9.581-4.044,18.557-10.843,25.355
		c-14.481,14.481-37.917,14.482-52.399,0c0,0-200.273-200.262-204.661-204.65l-32.164,23.046l227.221,227.221
		c4.66,4.66,10.768,6.99,16.877,6.99c6.108,0,12.216-2.33,16.877-6.99l109.789-109.789
		C459.855,331.424,459.855,316.312,450.534,306.992z"/>
	<path d="M94.423,36.575c4.472-3.416,9.856-5.757,15.821-6.562l55.79-7.522l-15.5-15.5C145.873,2.33,139.765,0,133.657,0
		c-6.108,0-12.216,2.33-16.877,6.991L87.397,36.373c0.632-0.022,1.263-0.046,1.899-0.046C91.019,36.327,92.729,36.411,94.423,36.575
		z"/>
	<path d="M22.744,166.286l7.601-56.371c0.819-6.085,3.268-11.616,6.86-16.185c-0.222-2.316-0.281-4.645-0.196-6.968L6.991,116.78
		c-9.321,9.321-9.321,24.433,0,33.753L22.744,166.286z"/>
	<path d="M42.715,217.153c6.006,3.613,13.583,3.301,19.261-0.773l0,0l51.673-37.025c0,0,213.141,213.13,214.26,214.249
		c8.221,8.221,21.55,8.222,29.772,0c8.22-8.22,8.223-21.549,0-29.772L238.698,244.849v0c3.233-3.233,3.101-3.101,6.427-6.427l0,0
		l118.983,118.983c8.221,8.221,21.55,8.222,29.772,0c8.285-8.285,8.119-21.653,0-29.772
		C269.854,203.608,282.402,216.696,179.41,113.704l37.301-52.059c4.084-5.701,4.374-13.273,0.773-19.261
		c-3.574-5.939-10.42-9.277-17.377-8.343L122.73,44.474l-4.436,0.598c2.854,1.906,5.542,4.108,8.024,6.59
		c7.349,7.349,12.037,16.359,14.095,25.831l0.028-0.004l24.079-3.247c-19.911,27.789-17.207,24.232-19.206,26.231l-0.198-0.198
		c-5.109,5.109-37.934,37.934-43.134,43.134l0.198,0.198c-3.658,3.658,0.927,0.137-27.607,20.582l3.291-24.407h0
		c-9.619-2.132-18.456-6.939-25.592-14.075c-2.593-2.593-4.854-5.395-6.788-8.349l-11.113,82.416
		C33.437,206.714,36.716,213.544,42.715,217.153z"/>
	<circle cx="89.296" cy="88.685" r="36.358"/>
</g>
<g>
</g>
<g>
</g>
<g>
</g>
<g>
</g>
<g>
</g>
<g>
</g>
<g>
</g>
<g>
</g>
<g>
</g>
<g>
</g>
<g>
</g>
<g>
</g>
<g>
</g>
<g>
</g>
<g>
</g>
</svg>
