<svg height="512pt" viewBox="-16 0 512 512" width="512pt" xmlns="http://www.w3.org/2000/svg"><path d="m390 45c0-24.8125-20.1875-45-45-45h-270c-24.8125 0-45 20.1875-45 45v15h360zm0 0"/><path d="m120 377v-60c0-8.289062 6.710938-15 15-15h45v-32h-15c-8.289062 0-15-6.710938-15-15v-45h-15c-24.8125 0-45-20.1875-45-45v-75h-60v332h105.382812c-9.519531-12.574219-15.382812-28.050781-15.382812-45zm0 0"/><path d="m300 347c0-8.277344-6.722656-15-15-15h-15v30h15c8.277344 0 15-6.722656 15-15zm0 0"/><path d="m180 210h30v30h-30zm0 0"/><path d="m270 165v-75h-150v75c0 8.277344 6.722656 15 15 15h120c8.277344 0 15-6.722656 15-15zm-45-15h-60c-8.289062 0-15-6.710938-15-15s6.710938-15 15-15h60c8.289062 0 15 6.710938 15 15s-6.710938 15-15 15zm0 0"/><path d="m390 105v-15h-90v60h32.128906c6.707032-25.808594 29.988282-45 57.871094-45zm0 0"/><path d="m150 377c0 24.8125 20.1875 45 45 45s45-20.1875 45-45v-45h-90zm0 0"/><path d="m254.617188 422h135.382812v-197c-27.882812 0-51.164062-19.191406-57.871094-45h-34.890625c-6.214843 17.421875-22.707031 30-42.238281 30h-15v45c0 8.289062-6.710938 15-15 15h-15v31.988281c4.546875 0 79.453125 0 75 0 24.8125 0 45 20.199219 45 45.011719s-20.1875 45-45 45h-16.519531c-2.269531 11.152344-7.230469 21.238281-13.863281 30zm0 0"/><path d="m15 512h390c8.285156 0 15-6.714844 15-15v-15c0-16.570312-13.429688-30-30-30h-360c-16.570312 0-30 13.429688-30 30v15c0 8.285156 6.714844 15 15 15zm0 0"/><path d="m360 165c0 16.570312 13.429688 30 30 30h60c16.570312 0 30-13.429688 30-30s-13.429688-30-30-30h-60c-16.570312 0-30 13.429688-30 30zm0 0"/></svg>