<svg height="512pt" viewBox="0 -14 512.00003 512" width="512pt" xmlns="http://www.w3.org/2000/svg"><path d="m180.773438 429.957031h150.453124v55.027344h-150.453124zm0 0"/><path d="m256 146.167969c-62.207031 0-112.8125 50.609375-112.8125 112.8125v140.664062h225.625v-140.664062c0-62.203125-50.609375-112.8125-112.8125-112.8125zm0 233.59375c-38.464844 0-69.757812-31.292969-69.757812-69.757813 0-31.292968 39.84375-110.148437 47.832031-125.640625 6.863281-13.3125 26.90625-9.582031 28.539062 5.296875l5.292969 48.253906 8.046875-10.835937c7.105469-9.570313 22.007813-7.550781 26.304687 3.570313 5.511719 14.257812 23.5 62.117187 23.5 79.355468 0 38.464844-31.292968 69.757813-69.757812 69.757813zm0 0"/><path d="m484.488281 429.957031h-122.945312v55.027344h122.945312c15.195313 0 27.511719-12.316406 27.511719-27.511719 0-15.195312-12.316406-27.515625-27.511719-27.515625zm0 0"/><path d="m269.21875 286.996094c-8.1875 11.027344-25.738281 6.292968-27.238281-7.386719l-3.699219-33.730469c-11.714844 26.472656-21.722656 52.867188-21.722656 64.125 0 21.75 17.691406 39.441406 39.441406 39.441406 21.746094 0 39.441406-17.691406 39.441406-39.441406 0-5.484375-5.257812-23.136718-11.894531-42.300781zm0 0"/><path d="m0 457.472656c0 15.195313 12.316406 27.511719 27.511719 27.511719h122.945312v-55.027344h-122.945312c-15.195313 0-27.511719 12.320313-27.511719 27.515625zm0 0"/><path d="m180.773438 0h150.453124v55.027344h-150.453124zm0 0"/><path d="m484.488281 0h-122.945312v55.027344h122.945312c15.195313 0 27.511719-12.316406 27.511719-27.511719v-.003906c0-15.195313-12.316406-27.511719-27.511719-27.511719zm0 0"/><path d="m470.230469 399.644531v-314.300781c-20.160157 0-408.234375 0-428.460938 0v314.300781h71.101563v-140.664062c0-78.921875 64.207031-143.128907 143.128906-143.128907s143.128906 64.207032 143.128906 143.128907v140.664062zm0 0"/><path d="m27.511719 55.027344h122.945312v-55.027344h-122.945312c-15.195313 0-27.511719 12.316406-27.511719 27.511719 0 15.195312 12.316406 27.515625 27.511719 27.515625zm0 0"/></svg>