<?xml version="1.0" encoding="iso-8859-1"?>
<!-- Generator: Adobe Illustrator 17.1.0, SVG Export Plug-In . SVG Version: 6.00 Build 0)  -->
<!DOCTYPE svg PUBLIC "-//W3C//DTD SVG 1.1//EN" "http://www.w3.org/Graphics/SVG/1.1/DTD/svg11.dtd">
<svg version="1.1" id="Capa_1" xmlns="http://www.w3.org/2000/svg" xmlns:xlink="http://www.w3.org/1999/xlink" x="0px" y="0px"
	 viewBox="0 0 201.235 201.235" style="enable-background:new 0 0 201.235 201.235;" xml:space="preserve">
<path d="M201.235,140.037c0-0.093-0.014-0.183-0.02-0.274v-0.496c0-2.776-0.564-5.423-1.58-7.834l-9.63-50.122
	c-0.121-0.628-0.394-1.19-0.764-1.671V40.975c0-11.033-8.977-20.01-20.01-20.01H31.984c-11.034,0-20.01,8.977-20.01,20.01v38.663
	c-0.372,0.484-0.647,1.051-0.766,1.685l-9.342,49.509C0.68,133.404,0,136.254,0,139.266v2.469v16.639v21.896h8v-17.896h185.215
	v17.896h8v-21.896v-16.639v-1.5C201.218,140.168,201.235,140.105,201.235,140.037z M19.974,40.975c0-6.622,5.388-12.01,12.01-12.01
	H169.23c6.623,0,12.01,5.388,12.01,12.01v37.09H168.95c0.028-0.339,0.052-0.679,0.052-1.024V61.648
	c0-6.7-5.451-12.151-12.151-12.151h-37.277c-6.7,0-12.151,5.451-12.151,12.151v15.393c0,0.346,0.023,0.686,0.052,1.024H93.741
	c0.028-0.339,0.052-0.679,0.052-1.024V61.648c0-6.7-5.451-12.151-12.151-12.151H44.364c-6.7,0-12.151,5.451-12.151,12.151v15.393
	c0,0.346,0.023,0.686,0.052,1.024H19.974V40.975z M8,154.374v-12.639v-2.469c0-6.744,5.487-12.231,12.231-12.231h160.752
	c6.745,0,12.231,5.487,12.231,12.231v2.469v12.639H8z"/>
<g>
</g>
<g>
</g>
<g>
</g>
<g>
</g>
<g>
</g>
<g>
</g>
<g>
</g>
<g>
</g>
<g>
</g>
<g>
</g>
<g>
</g>
<g>
</g>
<g>
</g>
<g>
</g>
<g>
</g>
</svg>
