<?xml version="1.0" encoding="iso-8859-1"?>
<!-- Generator: Adobe Illustrator 19.0.0, SVG Export Plug-In . SVG Version: 6.00 Build 0)  -->
<svg version="1.1" id="Capa_1" xmlns="http://www.w3.org/2000/svg" xmlns:xlink="http://www.w3.org/1999/xlink" x="0px" y="0px"
	 viewBox="0 0 426.667 426.667" style="enable-background:new 0 0 426.667 426.667;" xml:space="preserve">
<g>
	<g>
		<path d="M405.333,256c-5.888,0-10.667,4.779-10.667,10.667v64c0,5.888,4.779,10.667,10.667,10.667
			c5.888,0,10.667-4.779,10.667-10.667v-64C416,260.779,411.221,256,405.333,256z"/>
	</g>
</g>
<g>
	<g>
		<path d="M21.333,256c-5.888,0-10.667,4.779-10.667,10.667v64c0,5.888,4.779,10.667,10.667,10.667S32,336.555,32,330.667v-64
			C32,260.779,27.221,256,21.333,256z"/>
	</g>
</g>
<g>
	<g>
		<path d="M415.104,326.421c-0.021-0.021,0-0.064-0.021-0.085l-78.656-177.003h-37.76c-1.429,0-2.773-0.299-4.032-0.811l0.939,7.509
			c1.131,9.109-1.685,18.261-7.765,25.152c-6.08,6.891-14.805,10.816-23.979,10.816H162.837c-9.173,0-17.92-3.947-24-10.816
			c-6.059-6.891-8.896-16.043-7.744-25.152l0.939-7.509c-1.259,0.512-2.603,0.811-4.032,0.811H90.24L11.563,326.336
			c-0.021,0.021,0,0.064-0.021,0.085c-0.533,1.301-0.875,2.731-0.875,4.245v64V416c0,5.888,4.779,10.667,10.667,10.667
			S32,421.888,32,416v-10.667h362.667V416c0,5.888,4.779,10.667,10.667,10.667c5.888,0,10.667-4.779,10.667-10.667v-21.333v-64
			C416,329.152,415.659,327.723,415.104,326.421z M384,341.333H42.667c-5.888,0-10.667-4.779-10.667-10.667
			C32,324.779,36.779,320,42.667,320H384c5.888,0,10.667,4.779,10.667,10.667C394.667,336.555,389.888,341.333,384,341.333z"/>
	</g>
</g>
<g>
	<g>
		<path d="M274.411,158.677l-5.333-42.667c-0.661-5.333-5.205-9.344-10.581-9.344h-90.325c-5.376,0-9.92,4.011-10.581,9.344
			l-5.333,42.667c-0.384,3.093,0.533,6.059,2.581,8.384c2.048,2.325,4.885,3.605,8,3.605h100.992c3.115,0,5.952-1.28,8-3.605
			C273.877,164.736,274.795,161.749,274.411,158.677z"/>
	</g>
</g>
<g>
	<g>
		<path d="M277.333,0h-128C119.936,0,96,23.936,96,53.333V128h32c2.411,0,4.523,0.939,6.293,2.283l2.112-16.917
			c2.005-15.979,15.659-28.032,31.765-28.032h90.325c16.107,0,29.76,12.053,31.744,28.032l2.112,16.917
			c1.792-1.344,3.904-2.283,6.315-2.283h32V53.333C330.667,23.936,306.731,0,277.333,0z"/>
	</g>
</g>
<g>
</g>
<g>
</g>
<g>
</g>
<g>
</g>
<g>
</g>
<g>
</g>
<g>
</g>
<g>
</g>
<g>
</g>
<g>
</g>
<g>
</g>
<g>
</g>
<g>
</g>
<g>
</g>
<g>
</g>
</svg>
