<?xml version="1.0" encoding="iso-8859-1"?>
<!-- Generator: Adobe Illustrator 18.1.1, SVG Export Plug-In . SVG Version: 6.00 Build 0)  -->
<svg version="1.1" id="Capa_1" xmlns="http://www.w3.org/2000/svg" xmlns:xlink="http://www.w3.org/1999/xlink" x="0px" y="0px"
	 viewBox="0 0 17.063 17.063" style="enable-background:new 0 0 17.063 17.063;" xml:space="preserve">
<g>
	<g>
		<path style="fill:#030104;" d="M16.566,12.143V8.7l-0.452-0.21h-0.117V7.451l-1.204-1.202l-1.229,1.229V8.49h-1.823V8.066h0.269
			V7.567h-0.415L8.449,5.252L5.412,7.623h-0.37v0.499h0.303v0.367H3.653V7.45L2.45,6.248L1.221,7.477v1.012H0.936l-0.453,0.21v3.443
			H0v1.301h17.063v-1.301L16.566,12.143L16.566,12.143z M15.923,9.254v0.821h-1.501V9.254H15.923z M14.422,10.567h1.501v0.82h-1.501
			V10.567z M12.299,9.254h1.5v0.821h-1.5V9.254z M12.299,10.567h1.5v0.82h-1.5V10.567z M8.504,6.271
			c0.328,0,0.595,0.266,0.595,0.594S8.832,7.459,8.504,7.459c-0.329,0-0.595-0.266-0.595-0.594C7.909,6.537,8.175,6.271,8.504,6.271
			z M6.028,8.123h0.287v-0.19h4.418v0.134h0.187v0.424v3.653H6.028V8.491V8.123z M3.096,10.651h1.501v0.82H3.096V10.651z
			 M3.096,10.16V9.337h1.501v0.823H3.096z M0.973,9.338h1.5v0.823h-1.5V9.338z M0.973,10.651h1.5v0.82h-1.5V10.651z"/>
		<polygon style="fill:#030104;" points="12.913,8.123 12.913,7.178 8.46,3.847 4.398,7.178 4.398,8.123 8.409,4.793 		"/>
		<polygon style="fill:#030104;" points="11.803,3.62 10.819,3.62 10.819,5.261 11.803,5.928 		"/>
		<polygon style="fill:#030104;" points="1.22,7.316 2.45,6.087 3.653,7.289 4.109,7.746 4.223,7.63 3.653,7.06 2.477,5.885 
			2.45,5.858 2.424,5.885 1.22,7.087 0.65,7.657 0.764,7.772 		"/>
		<polygon style="fill:#030104;" points="13.563,7.316 14.792,6.087 15.996,7.289 16.451,7.746 16.566,7.63 15.996,7.06 
			14.819,5.885 14.792,5.858 14.766,5.885 13.563,7.087 12.992,7.657 13.107,7.772 		"/>
		<rect x="8.615" y="8.123" style="fill:#030104;" width="1.89" height="3.76"/>
		<rect x="6.434" y="8.123" style="fill:#030104;" width="1.891" height="3.76"/>
	</g>
</g>
<g>
</g>
<g>
</g>
<g>
</g>
<g>
</g>
<g>
</g>
<g>
</g>
<g>
</g>
<g>
</g>
<g>
</g>
<g>
</g>
<g>
</g>
<g>
</g>
<g>
</g>
<g>
</g>
<g>
</g>
</svg>
