<svg height="512pt" viewBox="0 -13 512 511" width="512pt" xmlns="http://www.w3.org/2000/svg"><path d="m370.480469 84.539062v-69.039062c0-8.285156-6.71875-15-15-15-8.285157 0-15 6.714844-15 15h-69.480469c0-8.285156-6.714844-15-15-15s-15 6.714844-15 15h-69.480469c0-8.285156-6.714843-15-15-15-8.28125 0-15 6.714844-15 15v69.039062zm0 0"/><path d="m497 266.945312c8.285156 0 15-6.71875 15-15v-84.042968c0-8.28125-6.714844-15-15-15s-15 6.71875-15 15h-47.15625c0-8.28125-6.714844-15-15-15s-15 6.71875-15 15h-28.351562v288.289062h-30v-148.769531h-180.984376v148.769531h-30v-288.289062h-28.351562c0-8.285156-6.714844-15-15-15s-15 6.714844-15 15h-47.15625c0-8.285156-6.714844-15-15-15s-15 6.714844-15 15v84.039062c0 8.285156 6.714844 15 15 15h3.804688v189.246094h-3.804688c-8.285156 0-15 6.71875-15 15 0 8.285156 6.714844 15 15 15h482c8.285156 0 15-6.714844 15-15 0-8.28125-6.714844-15-15-15h-3.804688v-189.242188zm-419.84375 36.21875c0-8.28125 6.714844-15 15-15s15 6.71875 15 15v28.011719c0 8.285157-6.714844 15-15 15s-15-6.714843-15-15zm183.640625 88.316407h-9.59375c-8.394531 0-15.226563 6.832031-15.226563 15.226562v49.484375h-30v-49.484375c0-24.9375 20.289063-45.226562 45.226563-45.226562h9.59375c24.9375 0 45.222656 20.289062 45.222656 45.226562v49.484375h-30v-49.484375c0-8.394531-6.828125-15.226562-15.222656-15.226562zm144.046875-88.316407c0-8.28125 6.714844-15 15-15s15 6.71875 15 15v28.011719c0 8.285157-6.714844 15-15 15s-15-6.714843-15-15zm0 0"/><path d="m165.507812 114.539062v162.882813h180.984376v-162.882813zm105.492188 58.265626c0 8.285156-6.714844 15-15 15s-15-6.714844-15-15v-28.011719c0-8.28125 6.714844-15 15-15s15 6.71875 15 15zm0 0"/></svg>